{
  "accessors": [
    {
      "bufferView": 2,
      "componentType": 5126,
      "count": 65533,
      "max": [
        13.546587944030762,
        4.862321853637695,
        43.634742736816406
      ],
      "min": [
        -4.302125930786133,
        -13.92973804473877,
        28.523963928222656
      ],
      "type": "VEC3"
    },
    {
      "bufferView": 2,
      "byteOffset": 786396,
      "componentType": 5126,
      "count": 65533,
      "max": [
        0.999957263469696,
        0.9995301365852356,
        1.0
      ],
      "min": [
        -0.999968945980072,
        -0.999983549118042,
        -0.9999993443489075
      ],
      "type": "VEC3"
    },
    {
      "bufferView": 1,
      "componentType": 5126,
      "count": 65533,
      "max": [
        0.999267578125,
        0.9955549836158752
      ],
      "min": [
        0.000732421875,
        0.0007408261299133301
      ],
      "type": "VEC2"
    },
    {
      "bufferView": 1,
      "byteOffset": 524264,
      "componentType": 5126,
      "count": 65533,
      "max": [
        0.999267578125,
        0.9955549836158752
      ],
      "min": [
        0.000732421875,
        0.0007408261299133301
      ],
      "type": "VEC2"
    },
    {
      "bufferView": 0,
      "componentType": 5125,
      "count": 346638,
      "type": "SCALAR"
    },
    {
      "bufferView": 2,
      "byteOffset": 1572792,
      "componentType": 5126,
      "count": 63337,
      "max": [
        0.4270491898059845,
        4.75005578994751,
        43.38701248168945
      ],
      "min": [
        -4.250888347625732,
        -2.951385974884033,
        39.91576385498047
      ],
      "type": "VEC3"
    },
    {
      "bufferView": 2,
      "byteOffset": 2332836,
      "componentType": 5126,
      "count": 63337,
      "max": [
        0.9999895095825195,
        0.999950647354126,
        0.9999950528144836
      ],
      "min": [
        -0.9999985694885254,
        -0.9987309575080872,
        -0.9126778841018677
      ],
      "type": "VEC3"
    },
    {
      "bufferView": 1,
      "byteOffset": 1048528,
      "componentType": 5126,
      "count": 63337,
      "max": [
        0.999267578125,
        0.9992591738700867
      ],
      "min": [
        0.000732421875,
        0.0007408261299133301
      ],
      "type": "VEC2"
    },
    {
      "bufferView": 1,
      "byteOffset": 1555224,
      "componentType": 5126,
      "count": 63337,
      "max": [
        0.999267578125,
        0.9992591738700867
      ],
      "min": [
        0.000732421875,
        0.0007408261299133301
      ],
      "type": "VEC2"
    },
    {
      "bufferView": 0,
      "byteOffset": 1386552,
      "componentType": 5125,
      "count": 344223,
      "type": "SCALAR"
    }
  ],
  "asset": {
    "extras": {
      "author": "vivikeram (https://sketchfab.com/vivikeram)",
      "license": "CC-BY-4.0 (http://creativecommons.org/licenses/by/4.0/)",
      "source": "https://sketchfab.com/3d-models/vennew-346039daef2c472e83d26b78ee72393b",
      "title": "Vennew"
    },
    "generator": "Sketchfab-12.66.0",
    "version": "2.0"
  },
  "bufferViews": [
    {
      "buffer": 0,
      "byteLength": 2763444,
      "name": "floatBufferViews",
      "target": 34963
    },
    {
      "buffer": 0,
      "byteLength": 2061920,
      "byteOffset": 2763444,
      "byteStride": 8,
      "name": "floatBufferViews",
      "target": 34962
    },
    {
      "buffer": 0,
      "byteLength": 3092880,
      "byteOffset": 4825364,
      "byteStride": 12,
      "name": "floatBufferViews",
      "target": 34962
    }
  ],
  "buffers": [
    {
      "byteLength": 7918244,
      "uri": "scene.bin"
    }
  ],
  "extensionsUsed": [
    "KHR_materials_unlit"
  ],
  "images": [
    {
      "uri": "textures/Material_0_baseColor.jpeg"
    }
  ],
  "materials": [
    {
      "doubleSided": true,
      "extensions": {
        "KHR_materials_unlit": {}
      },
      "name": "Material_0",
      "pbrMetallicRoughness": {
        "baseColorTexture": {
          "index": 0
        },
        "metallicFactor": 0.0
      }
    }
  ],
  "meshes": [
    {
      "name": "mainMeshNode_Material_0_0",
      "primitives": [
        {
          "attributes": {
            "NORMAL": 1,
            "POSITION": 0,
            "TEXCOORD_0": 2,
            "TEXCOORD_1": 3
          },
          "indices": 4,
          "material": 0,
          "mode": 4
        }
      ]
    },
    {
      "name": "mainMeshNode_Material_0_0",
      "primitives": [
        {
          "attributes": {
            "NORMAL": 6,
            "POSITION": 5,
            "TEXCOORD_0": 7,
            "TEXCOORD_1": 8
          },
          "indices": 9,
          "material": 0,
          "mode": 4
        }
      ]
    }
  ],
  "nodes": [
    {
      "children": [
        1
      ],
      "matrix": [
        1.0,
        0.0,
        0.0,
        0.0,
        0.0,
        2.220446049250313e-16,
        -1.0,
        0.0,
        0.0,
        1.0,
        2.220446049250313e-16,
        0.0,
        8.102773666381836,
        5.725825786590575,
        2.651218414306642,
        1.0
      ],
      "name": "Sketchfab_model"
    },
    {
      "children": [
        2
      ],
      "matrix": [
        1.0,
        0.0,
        0.0,
        0.0,
        0.0,
        0.0,
        1.0,
        0.0,
        0.0,
        -1.0,
        0.0,
        0.0,
        0.0,
        0.0,
        0.0,
        1.0
      ],
      "name": "b5d636c3420149ee8d3005d33a976c88.fbx"
    },
    {
      "children": [
        3
      ],
      "name": "RootNode"
    },
    {
      "children": [
        4
      ],
      "matrix": [
        4.206776617895793,
        2.314309119594126,
        0.45034274447519224,
        0.0,
        -2.0573328413202248,
        4.053143486553462,
        -1.610966870809964,
        0.0,
        -1.1516148959453578,
        1.2131801093759567,
        4.523027963108791,
        0.0,
        -0.39738893508911133,
        15.337727546691895,
        6.488786697387695,
        1.0
      ],
      "name": "mainMeshNode"
    },
    {
      "children": [
        5,
        6
      ],
      "matrix": [
        1.0,
        0.0,
        -0.0,
        0.0,
        0.0,
        1.0,
        0.0,
        0.0,
        0.0,
        0.0,
        1.0,
        0.0,
        1.3410580158233643,
        -0.6558488011360168,
        -41.40872573852539,
        1.0
      ],
      "name": "Object_4"
    },
    {
      "mesh": 0,
      "name": "mainMeshNode_Material_0_0"
    },
    {
      "mesh": 1,
      "name": "mainMeshNode_Material_0_0"
    }
  ],
  "samplers": [
    {
      "magFilter": 9729,
      "minFilter": 9987,
      "wrapS": 10497,
      "wrapT": 10497
    }
  ],
  "scene": 0,
  "scenes": [
    {
      "name": "Sketchfab_Scene",
      "nodes": [
        0
      ]
    }
  ],
  "textures": [
    {
      "sampler": 0,
      "source": 0
    }
  ]
}
